<?xml version="1.0" standalone="no"?>
<!DOCTYPE svg PUBLIC "-//W3C//DTD SVG 20010904//EN"
 "http://www.w3.org/TR/2001/REC-SVG-20010904/DTD/svg10.dtd">
<svg version="1.0" xmlns="http://www.w3.org/2000/svg"
 width="1000.000000pt" height="1000.000000pt" viewBox="0 0 1000.000000 1000.000000"
 preserveAspectRatio="xMidYMid meet">
<metadata>
Created by potrace 1.11, written by Peter Selinger 2001-2013
</metadata>
<g transform="translate(0.000000,1000.000000) scale(0.100000,-0.100000)"
fill="#000000" stroke="none">
<path d="M5587 8864 c-1 -1 -24 -4 -52 -7 -91 -10 -169 -36 -280 -92 -123 -63
-145 -78 -162 -116 -7 -15 -36 -41 -69 -60 -168 -96 -321 -247 -465 -459 -24
-36 -49 -74 -55 -85 -31 -56 -116 -199 -128 -217 -13 -18 -13 -24 -1 -42 13
-19 12 -30 -6 -86 -30 -96 -34 -126 -33 -235 1 -102 18 -179 42 -181 6 -1 16
-2 21 -3 4 0 25 -28 45 -60 101 -164 239 -237 465 -243 68 -2 84 0 109 19 63
46 169 66 206 38 13 -10 25 -11 43 -4 13 5 26 9 29 9 9 0 3 -93 -8 -113 -6
-12 -24 -35 -39 -52 -16 -16 -50 -77 -75 -135 -26 -58 -60 -134 -76 -170 -16
-36 -37 -81 -45 -100 -8 -19 -26 -57 -39 -83 -30 -61 -30 -67 1 -67 19 0 29
10 45 39 18 36 53 71 72 71 3 0 -13 -35 -37 -77 l-44 -76 21 -41 c40 -80 114
-122 200 -114 34 3 38 1 38 -19 0 -20 5 -23 43 -23 54 1 78 21 122 106 29 55
36 79 34 119 -1 42 8 69 53 165 73 154 77 164 137 325 29 77 66 173 82 214 16
41 27 76 25 78 -6 6 -36 -9 -36 -19 0 -6 -6 -24 -14 -41 -8 -18 -29 -70 -47
-117 -18 -47 -40 -98 -50 -113 -24 -41 -30 -12 -8 39 9 23 38 100 64 172 38
106 53 136 79 156 49 39 82 69 216 196 l126 118 12 69 c25 132 25 130 3 145
-11 8 -22 25 -25 39 -11 58 -33 92 -82 126 -60 42 -76 40 -119 -16 -22 -28
-40 -51 -42 -51 -9 0 27 80 46 103 14 17 14 20 -4 33 -36 27 -30 31 -173 -139
-44 -52 -114 -144 -156 -205 -42 -61 -95 -127 -117 -145 -59 -51 -202 -88
-429 -112 -55 -6 -247 -6 -275 -1 -11 3 -28 5 -37 5 -15 1 -18 10 -18 54 1
226 190 514 490 748 213 166 454 286 611 305 30 3 56 8 57 9 10 9 112 -31 150
-58 43 -31 44 -31 58 -12 14 18 12 23 -19 51 l-33 31 28 34 c39 46 36 72 -12
115 -22 20 -53 60 -70 89 -41 73 -96 126 -155 153 -43 20 -64 23 -143 21 -51
-2 -94 -4 -95 -5z m418 -1049 c0 -20 -77 -80 -95 -73 -5 2 7 25 27 51 36 49
68 59 68 22z m-1322 -402 c-3 -32 -7 -60 -9 -62 -9 -10 -26 19 -26 43 0 22 25
76 36 76 2 0 1 -26 -1 -57z"/>
<path d="M7210 8787 c-122 -66 -200 -151 -484 -527 -292 -386 -463 -662 -667
-1070 -79 -159 -102 -208 -174 -365 -38 -83 -149 -352 -200 -485 -26 -69 -53
-138 -60 -155 -7 -16 -20 -52 -30 -80 -9 -27 -21 -59 -26 -70 -20 -49 -164
-472 -238 -705 -46 -140 -86 -266 -91 -280 -5 -14 -30 -92 -55 -175 -26 -82
-58 -186 -72 -230 -204 -658 -372 -1142 -505 -1463 -58 -138 -146 -301 -441
-812 -257 -445 -427 -650 -607 -732 -56 -25 -176 -33 -246 -14 -82 22 -126 47
-185 107 -104 105 -152 270 -153 524 -1 162 3 206 35 353 37 169 112 387 180
524 25 50 46 70 201 190 l173 134 -1 105 c0 95 -10 231 -20 283 -2 11 -6 38
-9 61 -4 22 -17 83 -30 135 -80 323 -236 572 -442 709 -138 91 -260 133 -429
147 l-71 6 -34 -48 c-86 -119 -201 -331 -263 -484 -15 -36 -31 -74 -36 -85
-19 -45 -71 -209 -94 -301 -23 -93 -28 -113 -41 -189 -3 -16 -10 -52 -15 -80
-10 -51 -23 -159 -37 -300 -16 -162 -8 -710 12 -785 2 -8 6 -37 10 -65 7 -59
24 -162 40 -235 3 -14 7 -34 9 -45 48 -232 166 -553 289 -780 43 -80 171 -282
187 -295 3 -3 21 -25 40 -50 155 -202 381 -394 611 -518 168 -91 433 -177 609
-198 24 -3 47 -7 50 -9 3 -2 65 -7 138 -10 l132 -7 82 84 c293 298 550 617
789 974 102 152 104 155 149 229 17 28 35 57 40 65 53 87 154 265 206 363 71
134 234 466 239 487 1 3 7 16 13 30 46 105 130 315 127 319 -8 7 -59 -31 -93
-68 -17 -20 -56 -85 -86 -144 -30 -60 -56 -105 -59 -100 -3 4 -10 35 -17 67
-11 55 -7 196 6 218 3 4 7 16 9 25 2 10 6 25 10 34 4 12 -4 22 -29 37 -33 19
-48 42 -28 42 4 0 31 23 60 51 49 46 55 49 71 35 23 -21 106 -57 139 -60 42
-4 76 12 95 43 24 41 22 61 -8 61 -91 0 -116 70 -63 176 l21 43 26 -18 c78
-54 138 -17 186 118 14 40 14 41 -9 41 -33 0 -74 42 -82 85 -8 43 1 175 16
225 6 19 13 48 16 65 3 16 21 85 40 153 l36 123 -37 36 -36 35 47 43 46 43
105 -76 c57 -43 108 -75 111 -73 18 10 62 153 76 241 9 59 1 61 -104 36 -114
-28 -112 -29 -113 87 0 95 20 153 73 205 32 31 41 35 75 35 47 0 62 -8 113
-64 47 -50 64 -61 97 -66 28 -3 44 -1 52 8 6 8 14 61 18 119 3 57 8 107 10
110 2 3 6 26 10 50 18 128 87 335 151 457 80 151 204 315 296 388 30 25 43 48
74 135 21 58 44 116 51 130 7 14 13 29 13 33 0 4 8 27 19 50 10 23 33 76 51
117 123 282 233 497 294 573 29 37 99 116 154 175 223 240 271 310 308 447 17
62 11 236 -11 345 -2 14 -7 41 -10 60 -18 109 -76 320 -126 460 -56 156 -61
163 -151 227 -146 104 -259 168 -343 194 -55 18 -148 21 -175 6z m-110 -2572
c0 -3 -4 -13 -10 -23 -5 -9 -33 -77 -61 -150 -51 -131 -52 -133 -78 -126 -14
4 -33 8 -41 9 -8 1 -30 5 -47 9 l-33 7 26 52 c52 101 133 191 196 217 26 10
48 12 48 5z m-1264 -2497 c-6 -109 -30 -228 -46 -228 -5 0 -31 25 -59 55 l-50
56 77 114 c42 63 78 115 80 115 2 0 1 -51 -2 -112z m-664 -1783 c-48 -68 -90
-125 -94 -125 -6 0 -66 83 -91 126 -10 17 51 73 108 100 34 16 68 24 107 24
l57 0 -87 -125z m-158 -190 c8 -43 -15 -85 -145 -267 -119 -167 -120 -168
-152 -162 -18 4 -40 7 -49 8 -35 1 -29 10 99 148 l25 26 -20 22 -20 22 115
134 c107 125 117 133 129 116 7 -11 15 -32 18 -47z m-343 -522 c-13 -25 -98
-111 -151 -155 -57 -46 -152 -101 -219 -127 l-52 -21 -10 28 c-32 83 -19 136
43 177 55 36 102 52 253 85 159 35 148 34 136 13z m-241 -327 c0 -27 -12 -48
-51 -95 -28 -34 -54 -61 -58 -61 -4 0 -12 20 -18 45 l-10 45 66 50 c36 27 67
49 69 49 1 1 2 -14 2 -33z"/>
<path d="M4467 6183 c-93 -15 -167 -38 -242 -75 -101 -50 -171 -100 -182 -128
-6 -17 -32 -39 -68 -60 -188 -107 -357 -284 -513 -535 -134 -217 -150 -248
-136 -270 11 -17 9 -33 -13 -105 -45 -148 -33 -398 20 -394 11 1 33 -22 60
-65 80 -123 162 -187 276 -217 86 -22 90 -22 178 -25 73 -3 83 -1 155 35 66
33 84 38 124 33 26 -2 50 -10 54 -16 5 -9 14 -9 34 -1 15 5 29 10 32 10 9 0 3
-93 -8 -113 -6 -12 -24 -35 -39 -51 -15 -16 -67 -118 -115 -225 -48 -108 -100
-222 -115 -255 -16 -32 -29 -62 -29 -67 0 -5 13 -9 29 -9 22 0 30 6 35 24 6
26 58 86 74 86 6 0 -9 -34 -33 -76 -38 -68 -42 -80 -32 -103 37 -86 113 -135
197 -129 46 3 50 1 50 -19 0 -20 5 -23 45 -23 55 0 85 27 126 114 22 46 29 73
27 111 -2 42 6 66 49 155 67 137 72 149 138 325 31 83 67 177 80 210 32 83 35
95 27 95 -19 -1 -32 -23 -70 -120 -62 -161 -83 -204 -92 -190 -4 7 3 39 17 74
14 33 41 106 60 161 43 124 38 115 103 171 30 25 115 102 188 171 104 99 132
131 132 152 0 14 4 41 10 60 21 74 22 109 2 123 -10 7 -24 33 -31 58 -7 25
-20 54 -30 66 -21 26 -95 74 -114 74 -7 0 -33 -24 -56 -52 -32 -39 -42 -46
-36 -28 4 14 18 42 31 63 l25 38 -23 18 c-22 18 -23 18 -53 -13 -62 -62 -192
-223 -259 -321 -99 -143 -137 -181 -210 -204 -55 -18 -160 -41 -256 -56 -69
-11 -307 -18 -363 -11 l-57 7 0 52 c0 114 55 261 144 390 224 326 693 643 981
664 73 5 85 3 131 -20 28 -14 56 -33 63 -41 18 -21 38 -20 51 3 8 16 4 24 -24
49 -33 29 -34 31 -16 47 10 9 25 31 34 48 l15 32 -48 50 c-26 28 -67 81 -91
118 -45 71 -98 115 -162 136 -43 14 -175 11 -281 -6z m487 -1029 c8 -20 -6
-37 -50 -65 -51 -31 -57 -20 -17 34 36 49 57 58 67 31z m-1322 -416 c-5 -59
-8 -66 -23 -51 -17 17 -18 46 -2 76 21 42 30 32 25 -25z"/>
<path d="M6160 4084 c-49 -111 -80 -240 -73 -300 5 -36 40 -75 47 -53 3 8 30
86 61 174 l55 160 -34 34 -34 34 -22 -49z"/>
</g>
</svg>
